<mxfile host="app.diagrams.net" modified="2023-08-23T12:49:13.297Z" agent="Mozilla/5.0 (Windows NT 10.0; Win64; x64) AppleWebKit/537.36 (KHTML, like Gecko) Chrome/116.0.0.0 Safari/537.36" version="21.6.9" etag="_5y0bCYCk_UlCg-yKYHp" type="github">
  <diagram name="페이지-1" id="ifGWQAQ1d-jmGkcJr4Eu">
    <mxGraphModel>
      <root>
        <mxCell id="0" />
        <mxCell id="1" parent="0" />
      </root>
    </mxGraphModel>
  </diagram>
</mxfile>
